<svg xmlns="http://www.w3.org/2000/svg" xmlns:xlink="http://www.w3.org/1999/xlink" version="1.1" x="0px" y="0px" width="110px" height="110px" viewBox="0 0 110 110" style="enable-background:new 0 0 110 110;" xml:space="preserve" ><rect id="svgEditorBackground" x="0" y="0" width="110" height="110" style="fill: none; stroke: none;"/>
id="plocha_1" style="width: 110px; height: 110px;"&gt;


	<rect x="71" y="3" width="36" height="36" fill="none" stroke="black" stroke-width="6"/><text x="89" y="54" font-size="12" font-family="verdana"/><text x="21" y="122" font-size="12" font-family="verdana"/><polyline points="33.72792206135786,76.27207793864214 61.80761184457488,48.19238815542512" fill="none" stroke-width="4" stroke="white"/><polyline points="33.72792206135786,76.27207793864214 61.80761184457488,48.19238815542512" fill="none" stroke-width="6" stroke="black"/><polygon points="71,39 65.6966991411009,54.90990257669732 55.09009742330268,44.30330085889911 " fill="black" stroke="black"/><circle cx="21" cy="89" r="18" fill="none" stroke="black" stroke-width="6"/><text x="21" y="95" font-size="12" font-family="verdana"/><circle cx="78.84169006347656" cy="76.0749282836914" r="18" fill="none" stroke="black" stroke-width="6" id="e1_circle"/><circle cx="349.582" cy="337.1" r="18" stroke="black" stroke-width="6" id="e2_circle" transform="matrix(0.133811 0 0 0.133811 25.3034 24.6653)" style="fill:black;"/><circle cx="450.516" cy="336.646" r="18" stroke="black" stroke-width="6" id="e3_circle" transform="matrix(0.133811 0 0 0.133811 25.3034 24.6653)" style="fill:black;"/><circle cx="450.747" cy="430.729" r="18" stroke="black" stroke-width="6" id="e4_circle" transform="matrix(0.133811 0 0 0.133811 25.3034 24.6653)" style="fill:black;"/><circle cx="350.962" cy="430.961" r="18" stroke="black" stroke-width="6" id="e5_circle" transform="matrix(0.133811 0 0 0.133811 25.3034 24.6653)" style="fill:black;"/><circle cx="402.794" cy="382.091" r="18" stroke="black" stroke-width="6" id="e6_circle" transform="matrix(0.133811 0 0 0.133811 25.3034 24.6653)" style="fill:black;"/></svg>