<?xml version="1.0" encoding="utf-8"?>
<!DOCTYPE svg PUBLIC "-//W3C//DTD SVG 1.1//EN" "http://www.w3.org/Graphics/SVG/1.1/DTD/svg11.dtd">
<svg version="1.1" xmlns="http://www.w3.org/2000/svg" xmlns:xlink="http://www.w3.org/1999/xlink" x="0px" y="0px"
	 width="512px" height="512px" viewBox="0 0 512 512" enable-background="new 0 0 512 512" xml:space="preserve">
<path id="circle-dashed-6-icon" d="M175.402,66.401c52.759-22.505,110.929-21.308,161.188,0.012l-25.248,43.729
	c-34.894-13.217-74.268-13.871-110.688-0.001L175.402,66.401z M409.988,281c-6.002,36.828-25.122,71.253-55.343,95.859l25.253,43.74
	c45.868-34.438,73.917-85.414,80.583-139.6H409.988z M410.023,231L460.524,231c-6.737-55.343-36.012-106.087-80.611-139.624
	l-25.251,43.734C384.094,159.121,403.942,193.482,410.023,231z M102.013,231c6.001-36.828,25.121-71.253,55.342-95.858
	l-25.253-43.74C86.233,125.839,58.184,176.814,51.518,231H102.013z M311.345,401.859c-36.42,13.868-75.794,13.215-110.688-0.002
	l-25.246,43.73c50.258,21.318,108.429,22.516,161.188,0.012L311.345,401.859z M101.976,281h-50.5
	c6.737,55.341,36.013,106.088,80.611,139.624l25.25-43.735C127.906,352.88,108.058,318.518,101.976,281z"/>
</svg>
